<svg width="28" height="28" viewBox="0 0 28 28" fill="none" xmlns="http://www.w3.org/2000/svg">
<g id="svgexport-15 (32) 1">
<g id="Group">
<path id="Vector" d="M23.1875 9.1875H4.8125C4.06875 9.1875 3.5 8.61875 3.5 7.875C3.5 7.13125 4.06875 6.5625 4.8125 6.5625H23.1875C23.9312 6.5625 24.5 7.13125 24.5 7.875C24.5 8.61875 23.9312 9.1875 23.1875 9.1875ZM23.1875 15.3125H4.8125C4.06875 15.3125 3.5 14.7437 3.5 14C3.5 13.2562 4.06875 12.6875 4.8125 12.6875H23.1875C23.9312 12.6875 24.5 13.2562 24.5 14C24.5 14.7437 23.9312 15.3125 23.1875 15.3125ZM23.1875 21.4375H4.8125C4.06875 21.4375 3.5 20.8687 3.5 20.125C3.5 19.3813 4.06875 18.8125 4.8125 18.8125H23.1875C23.9312 18.8125 24.5 19.3813 24.5 20.125C24.5 20.8687 23.9312 21.4375 23.1875 21.4375Z" fill="white"/>
</g>
</g>
</svg>
